# Blender v2.82 (sub 7) OBJ File: ''
# www.blender.org
mtllib lod2.mtl
o mesh
v 27.388193 60.000301 -13.314665
v 30.452913 30.000324 0.112845
v 6.929620 60.000301 -29.714472
v -6.782125 30.000299 -29.714472
v -19.003128 30.000315 -23.829159
v -27.388193 30.000309 -13.314670
v -30.452909 60.000301 0.112847
v -27.355375 30.000307 13.458457
v -19.003122 60.000301 23.829168
v -18.806889 30.000309 23.994696
v -6.782124 60.000301 29.714479
v 6.782123 30.000296 29.714479
v 19.003130 30.000309 23.829165
v -26.906132 0.229857 12.989815
v -29.692301 1.250300 0.000000
v 29.877655 0.229876 0.029256
v 26.751801 1.250298 12.883000
v -29.877653 89.770721 0.029264
v -26.751801 88.750298 12.883008
v 26.931553 89.770737 12.937034
v 29.692301 88.750298 0.000008
v 26.890739 89.679680 -12.986460
v 30.511484 60.000301 -0.143783
v 27.552309 30.000307 -13.108875
v 18.613920 89.677711 -23.341171
v 19.075287 60.000301 -23.738668
v 19.003128 30.000315 -23.829159
v 6.653887 89.883369 -29.152496
v 6.782125 30.000299 -29.714472
v -6.676963 89.770737 -29.122002
v -6.782128 60.000301 -29.714472
v -18.644621 89.679672 -23.326759
v -19.003119 60.000301 -23.829163
v -26.919338 89.679657 -12.927077
v -27.552309 60.000301 -13.108871
v -30.544306 30.000322 0.000002
v -26.961594 90.035561 13.081827
v -27.460356 60.000301 13.224189
v -18.593071 89.679672 23.367878
v -6.628366 89.881577 29.152233
v -6.666373 30.000292 29.714479
v 6.676960 89.770737 29.122019
v 6.782124 60.000301 29.714479
v 18.644604 89.679672 23.326784
v 19.003120 60.000301 23.829168
v 27.460356 60.000301 13.224187
v 27.460356 30.000307 13.224184
v 29.967537 90.035576 -0.088067
v 26.919340 0.320943 -12.927085
v 18.644621 0.320927 -23.326767
v 6.676963 0.229865 -29.122011
v -6.628368 0.119024 -29.152225
v -18.593082 0.320928 -23.367863
v -26.890751 0.320940 -12.986440
v -29.970789 -0.036073 -0.074849
v -18.593084 0.320920 23.367859
v -6.646843 0.231773 29.121679
v 6.628368 0.119019 29.152225
v 18.593071 0.320922 23.367870
v 26.961594 -0.034966 13.081820
v -18.323799 88.754303 -4.046792
v -21.676201 88.754303 -4.046792
v -20.000002 89.821053 -3.508553
v -24.046801 88.754303 -1.676192
v -23.725758 89.800316 0.000008
v -24.046801 88.754303 1.676208
v -21.676201 88.754303 4.046808
v -20.000000 89.821053 3.508569
v -18.323799 88.754303 4.046808
v -15.953200 88.754303 1.676208
v -16.291410 89.818420 0.000008
v -15.953200 88.754303 -1.676192
v 20.934530 88.886063 -2.153349
v 19.149220 88.786629 -2.053984
v 17.767778 88.930817 -0.886381
v 17.982901 88.754303 0.835508
v 19.149220 88.786629 2.053999
v 20.835501 88.754303 2.017108
v 22.172169 88.902306 0.940738
v 22.017099 88.754303 -0.835492
vt 0.144631 0.496329
vt 0.074200 0.502800
vt 0.073495 0.493721
vt 0.571111 0.495917
vt 0.500000 0.502600
vt 0.500000 0.493121
vt 0.926305 0.006451
vt 0.996300 -0.000100
vt 0.997542 0.009222
vt 0.357797 0.006671
vt 0.428900 0.000200
vt 0.428888 0.009267
vt 0.890700 0.671400
vt 0.827200 0.714100
vt 0.763600 0.671400
vt 0.982900 0.886800
vt 0.941000 0.823050
vt 0.982900 0.759300
vt 0.763600 0.974700
vt 0.827200 0.932100
vt 0.890700 0.974700
vt 0.671400 0.759300
vt 0.713400 0.823050
vt 0.671400 0.886800
vt 0.420700 0.930400
vt 0.364333 0.984283
vt 0.420374 0.852714
vt 0.286405 0.799209
vt 0.364333 0.798417
vt 0.230751 0.930460
vt 0.856489 0.331964
vt 0.856493 0.171013
vt 0.927971 0.170682
vt 0.927891 0.331812
vt 0.785117 0.331703
vt 0.785112 0.170676
vt 0.713815 0.331997
vt 0.713817 0.171097
vt 0.642500 0.331824
vt 0.642512 0.170924
vt 0.571293 0.331917
vt 0.571295 0.170992
vt 0.500000 0.331547
vt 0.500000 0.170677
vt 0.428707 0.332039
vt 0.428706 0.170994
vt 0.357490 0.332030
vt 0.357488 0.170876
vt 0.286183 0.331577
vt 0.286185 0.170703
vt 0.214885 0.332082
vt 0.214883 0.171082
vt 0.143512 0.332012
vt 0.143511 0.170824
vt 0.072025 0.331812
vt 0.072025 0.170895
vt 0.000239 0.332140
vt 0.000161 0.171012
vt 0.356600 0.613300
vt 0.641300 0.613300
vt 0.656900 0.681800
vt 0.341000 0.681800
vt 0.000000 0.681800
vt 0.315900 0.681800
vt 0.300300 0.750400
vt 0.015600 0.750400
vt 0.999839 0.171012
vt 0.999761 0.332140
vt 0.997230 0.495659
vt 0.926335 0.496157
vt 0.855370 0.006422
vt 0.855369 0.496336
vt 0.784379 0.008312
vt 0.784351 0.495367
vt 0.713304 0.007454
vt 0.713315 0.494538
vt 0.642178 0.006671
vt 0.642178 0.496088
vt 0.571111 0.006831
vt 0.500000 0.007332
vt 0.428889 0.495221
vt 0.357764 0.495966
vt 0.286685 0.008236
vt 0.286694 0.495292
vt 0.215660 0.007232
vt 0.215634 0.494603
vt 0.144631 0.006412
vt 0.073619 0.007208
vt 0.002458 0.009222
vt 0.002770 0.495659
vt 0.597400 0.805300
vt 0.534100 0.835800
vt 0.463800 0.835800
vt 0.400500 0.805300
vt 0.003700 -0.000100
vt 0.059500 0.558300
vt 0.122800 0.527800
vt 0.193100 0.527800
vt 0.256400 0.558300
vt 0.641300 0.750400
vt 0.356600 0.750400
vt 0.015600 0.613300
vt 0.300300 0.613300
vt 0.400500 0.558300
vt 0.597400 0.558300
vt 0.256400 0.805300
vt 0.059500 0.805300
vt 0.463800 0.527800
vt 0.534100 0.527800
vt 0.193100 0.835800
vt 0.122800 0.835800
vt 0.286500 0.984200
vt 0.230100 0.852300
vn -0.0397 -0.9957 -0.0836
vn -0.5749 -0.7699 -0.2771
vn -0.8714 -0.1775 -0.4573
vn 0.9593 -0.1906 0.2082
vn 0.9767 -0.2122 0.0306
vn 0.9833 -0.1794 0.0320
vn -0.9429 0.2180 0.2517
vn -0.9773 0.2100 0.0298
vn -0.9836 0.1774 0.0340
vn 0.7404 0.2179 -0.6359
vn 0.8676 0.2100 -0.4508
vn 0.8813 0.2409 -0.4067
vn -0.2281 0.7713 -0.5941
vn 0.0718 0.6714 -0.7376
vn 0.4116 0.7561 -0.5089
vn -0.6002 0.7585 0.2540
vn -0.7999 0.5849 0.1346
vn -0.5112 0.7411 -0.4352
vn 0.2285 0.7701 0.5956
vn -0.0070 0.6313 0.7755
vn -0.4112 0.7572 0.5075
vn 0.6018 0.7573 -0.2538
vn 0.8016 0.5944 -0.0646
vn 0.5129 0.7401 0.4351
vn -0.1869 0.9818 0.0345
vn -0.2214 0.9752 0.0080
vn -0.1098 0.9672 0.2290
vn 0.0308 0.9637 -0.2651
vn -0.1211 0.9750 -0.1861
vn -0.0497 0.9964 -0.0691
vn -0.0787 0.9969 0.0081
vn 0.1160 0.9929 0.0242
vn 0.0526 0.9971 -0.0544
vn 0.6822 -0.0002 -0.7312
vn 0.5647 -0.0001 -0.8253
vn 0.8649 -0.0000 -0.5019
vn 0.9318 0.0000 -0.3630
vn 0.1494 -0.0001 -0.9888
vn 0.2986 -0.0001 -0.9544
vn -0.1479 0.0001 -0.9890
vn -0.1479 -0.0000 -0.9890
vn -0.5624 -0.0000 -0.8269
vn -0.6810 -0.0000 -0.7323
vn -0.9308 0.0000 -0.3656
vn -0.8660 -0.0000 -0.5001
vn -0.9972 0.0001 -0.0746
vn -0.9969 0.0001 0.0784
vn -0.9293 0.0003 0.3693
vn -0.8640 0.0003 0.5036
vn -0.5579 0.0003 0.8299
vn -0.5599 0.0003 0.8286
vn -0.1455 0.0002 0.9894
vn -0.2943 0.0001 0.9557
vn 0.1479 -0.0000 0.9890
vn 0.6810 0.0000 0.7323
vn 0.9313 0.0000 0.3643
vn 0.9970 0.0000 0.0770
vn 0.9970 0.0000 -0.0773
vn 0.0381 -0.9983 -0.0431
vn 0.0041 -0.9997 -0.0235
vn -0.0823 -0.9964 0.0202
vn -0.0041 0.9997 -0.0235
vn 0.0484 0.9984 0.0280
vn 0.0211 0.9996 0.0185
vn -0.0382 0.9983 -0.0430
vn 0.9291 0.0201 -0.3693
vn 0.8982 -0.0149 -0.4394
vn 0.9993 -0.0209 -0.0324
vn 0.9972 0.0192 0.0723
vn 0.9970 -0.0200 -0.0745
vn 0.9996 0.0268 -0.0122
vn 0.9019 0.0172 -0.4316
vn 0.8666 -0.0211 -0.4985
vn 0.6832 0.0209 -0.7300
vn 0.6241 -0.0173 -0.7812
vn 0.6237 0.0173 -0.7815
vn 0.5628 -0.0209 -0.8263
vn 0.1509 0.0204 -0.9883
vn 0.1986 0.0640 -0.9780
vn 0.2471 -0.0638 -0.9669
vn 0.2968 -0.0205 -0.9547
vn -0.2968 0.0205 -0.9547
vn -0.2470 -0.0238 -0.9687
vn -0.1966 -0.0638 -0.9784
vn -0.2957 -0.0203 -0.9551
vn -0.5628 0.0209 -0.8263
vn -0.6237 -0.0173 -0.7815
vn -0.6223 0.0175 -0.7826
vn -0.6811 -0.0207 -0.7319
vn -0.9322 0.0211 -0.3614
vn -0.9019 -0.0172 -0.4316
vn -0.9066 -0.0494 -0.4191
vn -0.8627 -0.0201 -0.5053
vn -0.9970 0.0200 -0.0745
vn -0.9996 -0.0268 -0.0122
vn -0.9993 0.0207 -0.0305
vn -0.9970 -0.0194 0.0755
vn -0.9308 0.0190 0.3651
vn -0.9117 0.0580 0.4067
vn -0.8615 -0.0203 0.5073
vn -0.8927 0.0265 0.4498
vn -0.6795 0.0196 0.7334
vn -0.6239 -0.0155 0.7813
vn -0.6766 -0.0211 0.7361
vn -0.6205 0.0172 0.7840
vn -0.1479 0.0202 0.9888
vn -0.1966 0.0638 0.9784
vn -0.2937 -0.0206 0.9557
vn -0.2448 0.0237 0.9693
vn 0.2968 0.0205 0.9547
vn 0.2471 0.0638 0.9669
vn 0.1966 -0.0638 0.9784
vn 0.2957 -0.0202 0.9551
vn 0.5626 0.0208 0.8265
vn 0.6239 -0.0175 0.7813
vn 0.6239 0.0155 0.7813
vn 0.5607 -0.0197 0.8278
vn 0.8646 0.0199 0.5021
vn 0.8946 -0.0268 0.4461
vn 0.8869 0.0210 0.4614
vn 0.8649 -0.0190 0.5016
vn 0.0219 -0.9993 0.0312
vn -0.0318 -0.9995 -0.0063
vn -0.0145 -0.9997 -0.0176
vn -0.0213 -0.9993 0.0312
vn 0.9452 -0.1931 -0.2634
vn 0.9664 0.1889 -0.1742
vn -0.9463 0.1889 -0.2624
vn -0.0219 0.9993 0.0312
vn 0.0319 0.9995 -0.0060
vn 0.0266 0.9978 0.0614
vn 0.0213 0.9993 0.0312
vn -0.0206 -0.9998 -0.0074
vn -0.0371 -0.9986 0.0365
vn -0.0218 0.9990 0.0381
vn 0.0371 0.9986 0.0365
vn 0.0303 -0.9975 -0.0646
vn 0.0125 0.9980 -0.0618
vn -0.0304 0.9975 -0.0645
vn 0.0318 -0.9995 0.0064
vn 0.0265 -0.9978 -0.0611
vn -0.0318 0.9995 0.0063
vn -0.0145 0.9997 0.0176
vn 0.1118 0.9927 -0.0443
vn -0.0792 0.9967 0.0193
vn -0.0270 0.9968 0.0757
vn -0.0654 0.9797 0.1895
vn -0.0420 0.9781 0.2037
vn 0.1520 0.9781 0.1421
vn 0.2716 0.9623 -0.0149
vn 0.2691 0.9617 -0.0520
vn 0.2194 0.9599 -0.1745
vn -0.0001 0.9952 -0.0980
vn -0.0145 0.9990 0.0419
usemtl Default_OBJ
s 1
f 59/1/1 17/2/2 60/3/3
f 54/4/4 15/5/5 55/6/6
f 22/7/7 21/8/8 48/9/9
f 39/10/10 19/11/11 37/12/12
f 62/13/13 63/14/14 61/15/15
f 66/16/16 65/17/17 64/18/18
f 69/19/19 68/20/20 67/21/21
f 72/22/22 71/23/23 70/24/24
f 76/25/25 77/26/26 75/27/27
f 75/27/28 73/28/29 74/29/30
f 79/30/31 75/27/32 77/26/33
f 27/31/34 26/32/35 1/33/36 24/34/37
f 29/35/38 3/36/39 26/32/35 27/31/34
f 4/37/40 31/38/41 3/36/39 29/35/38
f 5/39/42 33/40/43 31/38/41 4/37/40
f 6/41/44 35/42/45 33/40/43 5/39/42
f 6/41/44 36/43/46 7/44/47 35/42/45
f 8/45/48 38/46/49 7/44/47 36/43/46
f 10/47/50 9/48/51 38/46/49 8/45/48
f 41/49/52 11/50/53 9/48/51 10/47/50
f 12/51/54 43/52/54 11/50/53 41/49/52
f 13/53/55 45/54/55 43/52/54 12/51/54
f 47/55/56 46/56/56 45/54/55 13/53/55
f 2/57/57 23/58/58 46/56/56 47/55/56
f 17/59/2 14/60/59 15/61/60 16/62/61
f 21/63/62 18/64/63 19/65/64 20/66/65
f 1/33/66 22/7/67 48/9/68 23/67/69
f 2/68/70 16/69/71 49/70/72 24/34/73
f 26/32/74 25/71/75 22/7/67 1/33/66
f 24/34/73 49/70/72 50/72/76 27/31/77
f 26/32/74 3/36/78 28/73/79 25/71/75
f 27/31/77 50/72/76 51/74/80 29/35/81
f 31/38/82 30/75/83 28/73/79 3/36/78
f 29/35/81 51/74/80 52/76/84 4/37/85
f 33/40/86 32/77/87 30/75/83 31/38/82
f 4/37/85 52/76/84 53/78/88 5/39/89
f 35/42/90 34/79/91 32/77/87 33/40/86
f 5/39/89 53/78/88 54/4/92 6/41/93
f 7/44/94 18/80/95 34/79/91 35/42/90
f 6/41/93 54/4/92 55/6/96 36/43/97
f 38/46/98 37/12/99 18/80/95 7/44/94
f 8/45/100 36/43/97 55/6/96 14/81/101
f 9/48/102 39/10/103 37/12/99 38/46/98
f 10/47/104 8/45/100 14/81/101 56/82/105
f 11/50/106 40/83/107 39/10/103 9/48/102
f 41/49/108 10/47/104 56/82/105 57/84/109
f 43/52/110 42/85/111 40/83/107 11/50/106
f 41/49/108 57/84/109 58/86/112 12/51/113
f 45/54/114 44/87/115 42/85/111 43/52/110
f 12/51/113 58/86/112 59/1/116 13/53/117
f 46/56/118 20/88/119 44/87/115 45/54/114
f 13/53/117 59/1/116 60/3/120 47/55/121
f 23/58/69 48/89/68 20/88/119 46/56/118
f 47/55/121 60/3/120 16/90/71 2/57/70
f 53/91/122 52/92/123 51/93/124 50/94/125
f 60/3/3 17/2/2 16/90/61
f 55/6/6 15/5/5 14/81/126
f 2/68/57 24/34/37 1/33/36 23/67/58
f 37/12/12 19/11/11 18/80/127
f 48/89/9 21/95/8 20/88/128
f 25/96/129 28/97/130 30/98/131 32/99/132
f 54/100/133 53/91/122 50/94/125 49/101/134
f 22/102/135 25/96/129 32/99/132 34/103/136
f 15/61/60 54/100/133 49/101/134 16/62/61
f 21/63/62 22/102/135 34/103/136 18/64/63
f 17/59/2 59/104/1 56/105/137 14/60/59
f 19/65/64 39/106/138 44/107/139 20/66/65
f 59/104/1 58/108/140 57/109/141 56/105/137
f 39/106/138 40/110/142 42/111/143 44/107/139
f 65/17/17 63/14/14 62/13/13 64/18/18
f 65/17/17 66/16/16 67/21/21 68/20/20
f 71/23/23 68/20/20 69/19/19 70/24/24
f 71/23/23 72/22/22 61/15/15 63/14/14
f 65/17/144 71/23/145 63/14/146
f 78/112/147 79/30/148 77/26/149
f 80/113/150 73/28/151 79/30/152
f 68/20/153 71/23/145 65/17/144
f 79/30/31 73/28/154 75/27/32
