# Blender v2.91.2 OBJ File: 'nobiax_rocks.blend'
# www.blender.org
g mesh
v -3.247056 -2.719668 -63.220211
v -33.321579 13.551424 -4.178795
v -13.410037 14.473722 13.442390
v 6.484172 -10.939910 -5.949454
v 33.312546 -12.283899 -21.776911
v 33.987659 31.324635 -57.144978
v 57.544510 -1.486707 -23.132208
v 47.326183 -17.302437 -13.215004
v -60.450512 -4.813479 -46.379559
v 23.264410 38.344078 -0.510979
v 63.586437 8.050547 -20.754250
v 30.052530 0.539097 -56.756279
v 13.925566 -1.234279 -48.470711
v 17.271524 9.195445 -66.406761
v -32.874615 26.012402 -51.101513
v 18.734066 -14.566376 -20.873194
v 7.195852 -20.455624 -28.200851
v -19.105293 -12.073140 -23.905382
v -17.085180 -11.500687 2.465340
v 24.602861 18.963831 23.447107
v 39.116096 15.558004 6.372919
v 55.664192 -7.151498 8.762797
v 47.372696 8.827644 -53.333984
v 55.518509 9.534111 -28.774794
v -31.012758 16.520603 -62.028599
v -63.674786 0.425935 -31.557911
v -28.614655 -9.448787 -31.123632
v 38.634064 3.338419 -49.979397
v 51.544296 -11.118348 -48.899124
v 25.734385 -7.866904 -38.778225
v -54.793583 28.707916 -10.503496
v -49.788433 -8.386187 -10.156697
v -40.535355 -0.672408 8.805766
v -1.932700 22.980099 -54.665417
v -67.441307 15.706643 -50.015305
v -53.235271 9.341768 -62.560368
v -41.974606 26.136143 -44.821209
v 29.763420 29.559328 -29.083729
v 51.842648 22.805775 -48.843872
v 40.404896 -14.936920 -31.214735
v -24.760115 -9.603081 -7.798637
v -7.309129 32.493923 13.447850
v -61.163830 17.023949 -13.758917
v 1.640316 31.981585 -48.382198
v 47.387394 -20.733929 5.438692
v -18.288002 38.920822 -47.704006
v -33.736893 2.832384 -57.924221
v 36.643337 23.530933 -15.815104
v 34.300606 13.019756 16.490206
v -35.904247 -14.571665 7.647941
v 32.910213 -8.017561 5.518989
v -26.269279 42.811466 -19.185612
v -8.030470 42.147137 -34.289902
v 7.329777 46.995674 -22.147474
v 35.377411 15.466180 -67.709801
v -72.198364 11.689720 -21.658121
v -66.980972 9.614059 -35.244999
v -64.370277 2.934265 5.742597
v -44.895531 -4.835391 -18.911572
v 8.666892 3.598343 28.716845
v 57.560966 -15.502064 -35.794441
v 14.357901 -6.931044 26.223726
v 6.696710 30.810743 -35.161358
v -1.375280 -12.239658 -36.181293
v -32.160759 -8.135107 21.434683
v -10.246399 -12.246122 -58.600121
v -37.678253 29.892834 -18.250212
v -47.300049 13.512142 3.087344
v -24.831944 -12.361309 -12.076823
v 15.869556 20.295446 -68.145386
v 37.329708 -8.662642 -19.189493
vt 0.807951 0.676453
vt 0.892222 0.694065
vt 0.774366 0.708475
vt 0.668833 0.229526
vt 0.577874 0.162089
vt 0.683293 0.100671
vt 0.903917 0.423257
vt 0.928750 0.529035
vt 0.888391 0.473189
vt 0.622864 0.028548
vt 0.122409 0.451741
vt 0.054836 0.515835
vt 0.075298 0.416538
vt 0.619178 0.737566
vt 0.624961 0.798791
vt 0.462174 0.465925
vt 0.355672 0.400712
vt 0.446358 0.367974
vt 0.489774 0.383889
vt 0.718381 0.582627
vt 0.833691 0.584114
vt 0.266761 0.832934
vt 0.347047 0.836656
vt 0.318846 0.899707
vt 0.831823 0.484322
vt 0.801577 0.451177
vt 0.845016 0.445272
vt 0.344802 0.490674
vt 0.355094 0.460435
vt 0.393219 0.534720
vt 0.816327 0.033916
vt 0.948286 0.097032
vt 0.769487 0.118020
vt 0.820956 0.167999
vt 0.732430 0.031944
vt 0.744163 0.103133
vt 0.985774 0.530990
vt 0.987186 0.629849
vt 0.922762 0.603897
vt 0.134324 0.844168
vt 0.212901 0.940002
vt 0.415556 0.337089
vt 0.431132 0.241520
vt 0.764789 0.507727
vt 0.734065 0.407542
vt 0.523697 0.282335
vt 0.524758 0.460127
vt 0.614255 0.560217
vt 0.483329 0.493385
vt 0.451515 0.731460
vt 0.497554 0.685825
vt 0.491051 0.746754
vt 0.617311 0.822469
vt 0.531966 0.852745
vt 0.508503 0.789355
vt 0.271049 0.143918
vt 0.341893 0.086261
vt 0.405119 0.118117
vt 0.358068 0.773510
vt 0.428655 0.909353
vt 0.267461 0.450199
vt 0.221343 0.379421
vt 0.264074 0.330232
vt 0.189449 0.562775
vt 0.910507 0.261776
vt 0.832235 0.263957
vt 0.957761 0.370990
vt 0.541977 0.038568
vt 0.517447 0.154246
vt 0.466840 0.038739
vt 0.600114 0.382214
vt 0.197018 0.446121
vt 0.257347 0.536882
vt 0.192148 0.208960
vt 0.264235 0.222061
vt 0.176764 0.351807
vt 0.711747 0.809592
vt 0.871192 0.602074
vt 0.593709 0.205482
vt 0.539564 0.196588
vt 0.370753 0.193722
vt 0.295847 0.232386
vt 0.144260 0.033999
vt 0.027760 0.081253
vt 0.010776 0.056148
vt 0.490346 0.631823
vt 0.391400 0.644400
vt 0.399461 0.582945
vt 0.731112 0.175927
vt 0.668258 0.491652
vt 0.672535 0.424761
vt 0.105907 0.090477
vt 0.048932 0.155643
vt 0.109545 0.277794
vt 0.153539 0.197548
vt 0.092271 0.349489
vt 0.981500 0.320000
vt 0.980383 0.236827
vt 0.681154 0.632164
vt 0.031762 0.427064
vt 0.314181 0.555940
vt 0.337031 0.650230
vt 0.144819 0.131610
vt 0.279101 0.076169
vt 0.247958 0.127662
vt 0.165190 0.170290
vt 0.793488 0.394888
vt 0.861935 0.373706
vt 0.737852 0.294016
vt 0.772367 0.364087
vt 0.219285 0.627193
vt 0.239407 0.732141
vt 0.198771 0.655319
vt 0.324191 0.309566
vt 0.373851 0.252732
vt 0.396500 0.336700
vt 0.035157 0.687109
vt 0.125948 0.725493
vt 0.065217 0.772405
vt 0.168744 0.730503
vt 0.141116 0.587722
vt 0.349716 0.976512
vt 0.305506 0.772997
vt 0.417300 0.154500
vt 0.926400 0.018700
vt 0.848576 0.346686
vt 0.175900 0.760400
vt 0.241900 0.770300
vt 0.306588 0.365626
vt 0.301422 0.403572
vt 0.290088 0.577583
vt 0.295154 0.493796
vt 0.093154 0.211747
vt 0.063444 0.633972
vt 0.021327 0.587904
vt 0.056900 0.589000
vt 0.694700 0.312200
vt 0.767769 0.809551
vt 0.103611 0.825160
vt 0.276290 0.061151
vt 0.018053 0.824881
vt 0.630949 0.468387
vt 0.411800 0.478300
vt 0.617310 0.614336
vt 0.402300 0.281300
vt 0.721410 0.543748
vt 0.667600 0.539500
vt 0.616700 0.257300
vt 0.733100 0.263400
vt 0.672973 0.283136
vt 0.980400 0.415100
vn 0.3301 -0.2155 -0.9190
vn 0.1261 -0.7628 -0.6342
vn -0.0235 -0.8211 -0.5703
vn 0.1462 -0.9155 -0.3749
vn 0.9474 0.2646 -0.1799
vn 0.6752 -0.1385 0.7245
vn -0.3539 0.8321 -0.4271
vn -0.1601 0.8235 -0.5442
vn -0.3031 0.6460 -0.7005
vn 0.5116 0.6617 0.5481
vn 0.8431 0.4917 -0.2177
vn 0.8474 0.4295 -0.3123
vn 0.6838 -0.5418 -0.4888
vn -0.2399 -0.9659 -0.0974
vn -0.2644 -0.9547 -0.1365
vn 0.1310 -0.6571 0.7423
vn 0.0524 -0.8231 0.5655
vn 0.8028 0.1135 0.5854
vn 0.3910 0.4083 0.8249
vn -0.3712 0.2821 -0.8847
vn -0.1114 0.3819 -0.9174
vn -0.5287 -0.7900 -0.3104
vn -0.8245 0.3635 -0.4337
vn -0.1970 0.0447 -0.9794
vn 0.1701 -0.9416 0.2908
vn -0.1181 -0.9908 0.0655
vn 0.0704 -0.9833 0.1676
vn 0.2460 -0.8923 -0.3785
vn 0.3393 -0.6609 -0.6694
vn -0.3065 0.6276 0.7156
vn -0.3130 0.6338 0.7074
vn -0.3592 0.8938 0.2685
vn -0.5502 0.8319 -0.0718
vn 0.1093 -0.8953 0.4318
vn 0.0274 0.9344 -0.3552
vn 0.2973 0.8425 -0.4491
vn 0.1193 0.8694 -0.4795
vn -0.2468 -0.4749 -0.8447
vn 0.6291 0.7730 0.0817
vn -0.0025 -0.8491 -0.5283
vn 0.4182 -0.3981 -0.8165
vn 0.4775 0.8321 0.2821
vn -0.1985 -0.0521 0.9787
vn 0.0835 -0.9668 0.2416
vn -0.6497 0.6568 0.3828
vn -0.4220 0.6940 0.5833
vn -0.4980 0.1452 0.8549
vn -0.5884 0.0397 0.8076
vn -0.9978 0.0100 -0.0660
vn -0.1411 -0.9869 -0.0780
vn 0.4580 0.8889 0.0002
vn 0.2229 0.9618 -0.1588
vn 0.2681 0.8722 -0.4091
vn -0.0096 -0.9260 -0.3774
vn 0.8828 -0.4511 -0.1312
vn -0.1841 -0.2983 0.9366
vn 0.0586 -0.9752 0.2135
vn 0.2665 -0.9527 0.1461
vn -0.2741 0.2952 -0.9153
vn 0.4101 -0.0578 -0.9102
vn -0.3049 -0.5198 -0.7980
vn 0.0612 -0.9836 -0.1699
vn -0.2403 -0.9315 0.2732
vn 0.7459 -0.6644 -0.0480
vn 0.0102 -0.9989 0.0455
vn -0.0897 -0.9930 0.0773
vn -0.4283 -0.8846 0.1848
vn -0.6822 -0.1465 0.7164
vn 0.0176 0.7662 0.6423
vn -0.7137 -0.7004 -0.0117
vn -0.9477 0.3121 -0.0667
s 1
f 1/1/1 13/2/2 66/3/3
f 8/4/4 11/5/5 22/6/6
f 37/7/7 46/8/8 15/9/9
f 22/6/6 11/5/5 21/10/10
f 39/11/11 24/12/12 23/13/13
f 27/14/14 66/3/3 18/15/15
f 62/16/16 51/17/17 49/18/18
f 20/19/19 62/16/16 49/18/18
f 25/20/20 1/1/1 66/3/3
f 1/1/1 25/20/20 34/21/21
f 9/22/22 35/23/23 36/24/24
f 5/25/25 40/26/26 71/27/27
f 12/28/28 28/29/29 13/30/2
f 2/31/30 42/32/31 67/33/32
f 42/32/31 52/34/33 67/33/32
f 51/35/17 45/36/34 22/6/6
f 53/37/35 63/38/36 44/39/37
f 46/8/8 53/37/35 44/39/37
f 27/40/14 9/22/22 47/41/38
f 49/18/18 51/17/17 21/42/10
f 21/42/10 48/43/39 49/18/18
f 30/44/40 29/45/41 40/26/26
f 49/18/18 48/43/39 10/46/42
f 60/47/43 19/48/44 62/49/16
f 43/50/45 2/51/30 31/52/46
f 2/53/30 67/54/32 31/55/46
f 5/25/25 30/44/40 40/26/26
f 3/56/47 2/57/30 33/58/48
f 31/55/46 35/23/23 57/59/49
f 36/24/24 35/23/23 37/60/7
f 34/21/21 13/2/2 1/1/1
f 59/61/50 27/62/14 18/63/15
f 24/12/12 39/11/11 38/64/51
f 54/65/52 53/66/35 52/34/33
f 54/65/52 38/67/51 53/66/35
f 48/68/39 24/69/12 38/70/51
f 42/71/31 60/47/43 20/19/19
f 57/59/49 43/50/45 31/55/46
f 67/54/32 37/60/7 31/55/46
f 35/23/23 31/55/46 37/60/7
f 6/72/53 63/73/36 38/64/51
f 44/74/37 63/75/36 6/76/53
f 66/3/3 64/77/54 18/15/15
f 46/8/8 44/39/37 34/78/21
f 15/9/9 46/8/8 34/78/21
f 7/79/55 24/80/12 11/5/5
f 3/56/47 33/58/48 65/81/56
f 19/82/44 3/56/47 65/81/56
f 20/19/19 60/47/43 62/49/16
f 4/83/57 5/84/25 71/85/27
f 4/86/57 71/87/27 51/88/17
f 62/49/16 4/86/57 51/88/17
f 4/86/57 62/49/16 19/48/44
f 22/6/6 45/89/34 8/4/4
f 52/34/33 53/66/35 67/33/32
f 29/45/41 30/90/40 28/91/29
f 16/92/58 30/93/40 5/84/25
f 44/74/37 70/94/59 34/95/21
f 39/11/11 55/96/60 6/76/53
f 38/67/51 54/65/52 48/97/39
f 10/98/42 48/97/39 54/65/52
f 25/20/20 66/3/3 47/99/38
f 28/100/29 55/96/60 23/13/13
f 20/19/19 10/46/42 42/71/31
f 39/11/11 23/13/13 55/96/60
f 14/101/61 13/30/2 34/102/21
f 17/103/62 69/104/63 18/105/15
f 17/103/62 18/105/15 64/106/54
f 71/27/27 61/107/64 7/108/55
f 29/45/41 7/109/55 61/110/64
f 48/68/39 21/10/10 11/5/5
f 51/35/17 22/6/6 21/10/10
f 59/111/50 33/112/48 32/113/65
f 41/114/66 50/115/67 59/116/50
f 43/117/45 58/118/68 68/119/69
f 12/28/28 13/30/2 14/101/61
f 11/5/5 24/69/12 48/68/39
f 32/113/65 58/120/68 26/121/70
f 32/113/65 33/112/48 58/120/68
f 37/60/7 47/122/38 36/24/24
f 35/23/23 9/22/22 57/123/49
f 50/124/67 65/81/56 33/58/48
f 3/125/47 42/32/31 2/31/30
f 41/114/66 19/82/44 50/115/67
f 50/115/67 19/82/44 65/81/56
f 53/66/35 38/67/51 63/126/36
f 9/22/22 59/127/50 26/128/70
f 27/40/14 59/127/50 9/22/22
f 26/121/70 59/111/50 32/113/65
f 20/19/19 49/18/18 10/46/42
f 11/5/5 8/4/4 7/79/55
f 38/64/51 39/11/11 6/72/53
f 59/61/50 18/63/15 69/129/63
f 41/130/66 59/61/50 69/129/63
f 14/101/61 34/102/21 70/131/59
f 12/28/28 14/101/61 55/132/60
f 70/131/59 55/132/60 14/101/61
f 16/92/58 4/83/57 17/103/62
f 5/84/25 4/83/57 16/92/58
f 64/106/54 13/133/2 17/103/62
f 54/65/52 52/34/33 42/32/31
f 56/134/71 57/135/49 26/136/70
f 56/134/71 43/117/45 57/135/49
f 24/137/12 7/109/55 29/45/41
f 24/137/12 29/45/41 28/91/29
f 27/14/14 47/99/38 66/3/3
f 66/3/3 13/138/2 64/77/54
f 47/41/38 9/22/22 36/24/24
f 23/13/13 24/12/12 28/100/29
f 58/118/68 33/139/48 68/119/69
f 17/103/62 4/83/57 41/140/66
f 69/104/63 17/103/62 41/140/66
f 68/119/69 33/139/48 2/141/30
f 19/48/44 60/47/43 3/142/47
f 3/142/47 60/47/43 42/71/31
f 70/94/59 44/74/37 6/76/53
f 55/96/60 70/94/59 6/76/53
f 30/143/40 13/30/2 28/29/29
f 2/141/30 43/117/45 68/119/69
f 9/22/22 26/128/70 57/123/49
f 56/134/71 26/121/70 58/120/68
f 41/144/66 4/86/57 19/48/44
f 59/116/50 50/115/67 33/145/48
f 29/45/41 61/107/64 40/26/26
f 55/132/60 28/29/29 12/28/28
f 34/21/21 25/20/20 15/146/9
f 58/118/68 43/117/45 56/134/71
f 25/20/20 47/99/38 37/147/7
f 8/4/4 71/148/27 7/79/55
f 51/149/17 8/4/4 45/89/34
f 51/149/17 71/150/27 8/4/4
f 17/103/62 30/93/40 16/92/58
f 13/133/2 30/93/40 17/103/62
f 71/27/27 40/26/26 61/107/64
f 42/32/31 10/98/42 54/65/52
f 67/151/32 46/8/8 37/7/7
f 46/8/8 67/151/32 53/37/35
f 15/146/9 25/20/20 37/147/7
